<svg width="200" height="200" viewBox="0 0 200 200" fill="none" xmlns="http://www.w3.org/2000/svg">
<path d="M87.3484 173.947H87.4104C94.0864 173.922 99.4944 166.367 99.4944 157.045C99.4944 155.357 99.3164 153.722 98.9884 152.186L127.158 148.35C127.054 149.259 126.999 150.197 126.999 151.157C126.999 159.426 131.076 166.13 136.107 166.13C141.138 166.13 145.214 159.426 145.214 151.157C145.214 149.331 145.017 147.585 144.653 145.969L153.344 144.783C155.592 144.475 159.11 142.055 159.11 138.135L168.467 86.4611C168.467 83.0231 164.061 81.6303 162.871 81.7253L69.1484 70.1523C69.1484 70.1523 65.6604 56.7472 63.1914 54.2502C61.7964 52.7702 60.2714 51.7423 58.2554 51.3293C57.9804 51.2713 57.7024 51.2243 57.4274 51.1833L50.3234 50.1252C50.3234 50.1252 22.6474 45.7753 17.9284 45.0893C13.2114 44.4033 11.4364 46.6383 12.1534 50.2363C12.5874 52.4053 14.4134 61.9621 15.0224 65.2321C15.6274 68.5001 17.2644 69.6082 20.8684 70.1992C24.4754 70.7912 41.0574 73.3493 41.0574 73.3493L56.3284 149.964C57.1174 154.532 59.1724 157.64 66.4004 156.62L75.3164 155.406C75.2794 155.944 75.2594 156.491 75.2594 157.044C75.2644 166.367 80.6724 173.922 87.3484 173.947Z" fill="url(#paint0_linear_2866_568)"/>
<path d="M52.1162 128.801C69.0022 126.457 88.4462 125.121 109.141 125.121C127.731 125.121 145.309 126.199 160.932 128.116L159.116 138.141C159.116 142.06 155.598 144.479 153.348 144.787L144.659 145.972C145.022 147.589 145.22 149.334 145.22 151.16C145.22 159.431 141.144 166.135 136.113 166.135C131.084 166.135 127.004 159.431 127.004 151.16C127.004 150.202 127.061 149.264 127.164 148.354L98.9922 152.191C99.3222 153.729 99.5002 155.36 99.5002 157.049C99.5002 166.387 94.0762 173.953 87.3872 173.953C80.6942 173.953 75.2702 166.387 75.2702 157.049C75.2702 156.498 75.2882 155.952 75.3292 155.412L66.4092 156.625C59.1822 157.646 57.1272 154.537 56.3372 149.968L52.1162 128.801Z" fill="url(#paint1_linear_2866_568)"/>
<path d="M89.4971 34.699C89.4971 29.895 93.3921 26 98.1981 26H178.37C183.177 26 187.069 29.896 187.069 34.699V85.929C187.069 89.448 185.733 91.7011 182.02 94.3401L149.354 116.887L156.268 94.6279H98.1981C93.3911 94.6279 89.4971 90.732 89.4971 85.929V34.699Z" fill="#24C8FE"/>
<path d="M108.114 60.8765C108.114 56.9935 111.26 53.8496 115.141 53.8496C119.024 53.8496 122.169 56.9945 122.169 60.8765C122.169 64.7585 119.023 67.9036 115.141 67.9036C111.26 67.9036 108.114 64.7585 108.114 60.8765ZM154.391 60.8765C154.391 56.9935 157.537 53.8496 161.417 53.8496C165.301 53.8496 168.447 56.9945 168.447 60.8765C168.447 64.7585 165.301 67.9036 161.417 67.9036C157.537 67.9036 154.391 64.7585 154.391 60.8765ZM131.252 60.8765C131.252 56.9935 134.398 53.8496 138.279 53.8496C142.162 53.8496 145.308 56.9945 145.308 60.8765C145.308 64.7585 142.162 67.9036 138.279 67.9036C134.399 67.9036 131.252 64.7585 131.252 60.8765Z" fill="#70FFFF"/>
<path d="M89.4971 72.665V85.9299C89.4971 90.7339 93.3921 94.6289 98.1981 94.6289H156.268L149.354 116.888L164.907 106.152L168.473 86.4629C168.473 83.0259 164.069 81.634 162.876 81.728L89.4971 72.665Z" fill="url(#paint2_linear_2866_568)"/>
<defs>
<linearGradient id="paint0_linear_2866_568" x1="10.8332" y1="108.659" x2="168.619" y2="111.734" gradientUnits="userSpaceOnUse">
<stop stop-color="#FF6BA6"/>
<stop offset="0.059" stop-color="#EF68AA"/>
<stop offset="0.3114" stop-color="#AE5CB8"/>
<stop offset="0.5406" stop-color="#7A53C4"/>
<stop offset="0.7391" stop-color="#554DCC"/>
<stop offset="0.8988" stop-color="#3E48D1"/>
<stop offset="1" stop-color="#3647D3"/>
</linearGradient>
<linearGradient id="paint1_linear_2866_568" x1="52.166" y1="145.891" x2="157.057" y2="153.001" gradientUnits="userSpaceOnUse">
<stop stop-color="#1B2BBB"/>
<stop offset="0.6138" stop-color="#0D6DD2"/>
<stop offset="0.9677" stop-color="#068FDE"/>
</linearGradient>
<linearGradient id="paint2_linear_2866_568" x1="90.0671" y1="76.3541" x2="169.553" y2="103.813" gradientUnits="userSpaceOnUse">
<stop stop-color="#1E30D2"/>
<stop offset="1" stop-color="#04DBF0"/>
</linearGradient>
</defs>
</svg>
